<?xml version="1.0" encoding="UTF-8"?>
<svg id="Layer_2" data-name="Layer 2" xmlns="http://www.w3.org/2000/svg" viewBox="0 0 582.18 112.66">
  <defs>
    <style>
      .cls-1 {
        fill: #fff;
      }
    </style>
  </defs>
  <g id="Layer_1-2" data-name="Layer 1">
    <g>
      <g>
        <path class="cls-1" d="M8.24,102.76c-2.6-6.29-4.61-12.43-6.04-18.43-1.47-6-2.2-12.01-2.2-18.05,0-4.4.5-9.04,1.51-13.9.96-4.86,2.47-9.66,4.53-14.4,2.01-4.74,4.57-9.27,7.67-13.58,3.1-4.28,6.77-8.05,11.01-11.32,4.24-3.23,9.06-5.81,14.47-7.74,5.41-1.93,11.42-2.89,18.05-2.89h10.25v30.12h-10.25c-4.36,0-8.2.94-11.51,2.83-3.31,1.93-6.08,4.51-8.3,7.74-2.26,3.27-3.96,7.04-5.09,11.32-1.17,4.32-1.76,8.87-1.76,13.65,0,.8.02,1.57.06,2.33.04.75.1,1.49.19,2.2h19.69v-4.4h-5.16v-30.12h35.28v64.65H8.24Z"/>
        <path class="cls-1" d="M130,102.76v-17.11h-12.2v17.11h-30.19v-43.14c0-5.24.69-10.29,2.08-15.16,1.38-4.86,3.33-9.41,5.85-13.65,2.52-4.23,5.54-8.09,9.06-11.57,3.52-3.48,7.42-6.48,11.7-8.99,4.23-2.47,8.78-4.4,13.65-5.79,4.86-1.34,9.92-2.01,15.16-2.01h15.03v100.31h-30.12ZM130,37.29c-3.14,2.05-5.74,4.68-7.8,7.86-2.05,3.19-3.4,6.65-4.02,10.38h11.82v-18.24Z"/>
        <path class="cls-1" d="M294.02,70.06c0,5.33-.42,10.63-1.26,15.91-.84,5.33-1.97,10.92-3.4,16.79h-31.32c.75-2.73,1.49-5.43,2.2-8.11.67-2.64,1.28-5.3,1.82-7.99.5-2.64.92-5.32,1.26-8.05.33-2.73.5-5.53.5-8.43,0-3.56-.36-7.17-1.07-10.82-.71-3.65-1.8-7.11-3.27-10.38-1.47-3.23-3.33-6.16-5.6-8.8-2.31-2.64-5.03-4.72-8.18-6.23v68.8h-30.19V33.96c-3.27,1.51-6.06,3.61-8.37,6.29-2.31,2.73-4.19,5.75-5.66,9.06-1.47,3.35-2.54,6.9-3.21,10.63-.67,3.73-1.01,7.4-1.01,11.01,0,2.81.17,5.56.5,8.24.33,2.68.78,5.35,1.32,7.99.5,2.64,1.11,5.26,1.82,7.86.67,2.6,1.38,5.18,2.14,7.74h-31.32c-1.3-5.32-2.39-10.63-3.27-15.91-.92-5.24-1.38-10.59-1.38-16.04,0-6.58.69-13.12,2.08-19.62,1.38-6.5,3.75-12.87,7.11-19.12,2.73-5.16,6.02-9.69,9.87-13.58,3.82-3.9,8.07-7.15,12.77-9.75,4.65-2.6,9.66-4.57,15.03-5.91,5.32-1.3,10.88-1.95,16.67-1.95s11.34.65,16.67,1.95c5.32,1.34,10.31,3.31,14.97,5.91,4.65,2.6,8.91,5.85,12.77,9.75,3.82,3.9,7.09,8.43,9.81,13.58,3.31,6.21,5.68,12.45,7.11,18.74l2.08,19.25Z"/>
        <path class="cls-1" d="M350.31,102.76c-5.37,0-10.36-.84-14.97-2.52-4.65-1.68-8.91-3.98-12.77-6.92-3.86-2.89-7.28-6.33-10.25-10.31-3.02-3.94-5.56-8.2-7.61-12.77-2.05-4.57-3.63-9.35-4.72-14.34-1.09-4.99-1.64-9.98-1.64-14.97,0-6.42.8-12.79,2.39-19.12,1.55-6.29,3.69-12.75,6.41-19.37h56.79v30.12h-35.03c-.12.92-.19,1.85-.19,2.77-.04.92-.11,1.85-.19,2.77h29.87v30.12h-19.5c1.51,1.43,3.21,2.52,5.09,3.27,1.84.75,3.94,1.13,6.29,1.13h13.65v30.12h-13.65Z"/>
      </g>
      <g>
        <path class="cls-1" d="M411.65,62.49h4.98l.55-1.33c.44-1.55,1.33-3.32,3.32-6.87,1.11-1.99,1.77-3.88,3.1-8.09,2.44-7.98,5.65-16.84,10.19-28.24,4.87-12.29,7.86-17.28,10.63-17.94,1-.11,1.99.33,2.66,1.33,1.44,2.33-.33,7.98-7.98,25.25-3.66,8.31-6.31,14.07-9.64,20.93-2.1,4.32-2.77,6.09-3.77,9.75-1.88,6.31-1.99,5.65,1.88,6.2,4.43.66,5.87,1,6.65,1.66.78.55.89,1.66,0,2.1-.33.33-.44.22-.89-.22-.44-.55-1-.66-2.99-1-1.44-.22-3.54-.44-4.65-.44l-2.21-.11-.44,1.88c-2.66,10.19-6.76,31.46-7.53,38.77-.22,2.55-.22,3.32,0,4.21.55,1.44.11,2.33-1.11,2.33-.55,0-1.11-.11-1.33-.44-1.11-1.22-1.22-3.77-.78-10.63.67-9.08,2.66-21.04,5.32-32.45.78-3.21.78-3.66.22-3.88-.66-.22-10.96.11-16.28.44-8.08.66-14.95,1.55-15.29,1.88-.11.22-1,3.21-1.77,6.76-5.98,25.48-6.65,28.69-6.65,31.35,0,2.22-.44,2.99-1.55,2.99-1.66,0-2.21-1.11-2.21-4.87,0-6.2,1.44-15.29,4.32-26.58,1.22-4.65,2.1-8.64,2.1-8.86s-.78-.22-3.54-.11c-3.21.11-3.66,0-4.21-.44-.78-.66-.89-1.88-.11-2.44.55-.55,5.98-1.33,7.98-1.33,1.22,0,1.55-.55,1.55-1.99,0-.78.33-2.22.89-3.66.44-1.22,1.33-3.88,1.88-5.87,6.42-22.6,9.75-32.45,13.29-39.54,1.88-3.54,3.32-5.21,4.65-5.21s2.1.89,2.1,2.33c0,1.55-2.99,9.86-9.3,25.81-2.88,7.09-3.21,8.31-4.76,13.4-.89,3.1-3.1,11.52-3.54,13.18l-.11.78,2.88-.11c7.64-.55,16.84-.89,21.49-.66ZM435.35,27.49c-.22,1,3.32-6.09,5.09-10.3,1.77-3.99,3.1-7.86,2.99-8.42-.11-.78-7.75,16.61-8.09,18.72Z"/>
        <path class="cls-1" d="M450.63,48.09c1.66-2.55,5.43-6.09,7.64-7.53,3.99-2.33,7.09-1.88,8.64,1.22.55,1.22.66,1.55.66,5.1-.11,2.1-.22,4.65-.55,5.76-.22,1-.22,1.99-.11,1.99.44.33.78,2.22,1,5.98.44,6.09,1,7.86,2.55,8.42,1.77.78,3.88-1.22,11.08-10.08,3.32-4.1,4.43-5.21,4.87-5.1.33,0,.55.22.55.44.11.44-3.77,6.31-7.2,10.85-4.21,5.76-7.75,7.75-10.86,6.42-2.77-1.22-4.21-5.1-4.21-11.08,0-2.44-.11-2.77-.44-2.77-.22,0-.55.22-.89.55-1.33,1.66-5.87,8.97-9.08,14.51-4.1,7.53-6.09,10.74-7.42,11.74-1.88,1.66-3.88,1.88-5.76.78-1.44-.78-1.99-1.99-2.22-4.32-.44-7.53,4.98-22.6,11.74-32.9ZM446.09,75.89c.11.55,1.22-.89,7.53-9.42,3.32-4.32,6.54-8.53,7.2-9.3l1.44-1.66.67-4.43c.78-4.65.78-7.53.22-7.75-.66-.22-3.32,2.88-6.09,7.2-3.43,5.32-7.2,12.85-8.75,17.17-1,3.32-2.21,7.42-2.21,8.2Z"/>
        <path class="cls-1" d="M498.82,64.15c1.99-3.66,3.77-8.2,4.54-11.19.67-2.44,1.22-3.32,1.88-3.32.78,0,.89.33,1,2.88,0,2.77.55,4.1,1.77,4.87,1.88,1.22,6.09.22,8.53-1.99,1.11-1,1.88-1.11,1.88-.22,0,.78-2.88,3.43-4.98,4.32-3.43,1.77-6.54,1.44-8.53-.66-.78-.89-1-1-1.11-.66-.11.33-1,2.77-2.1,5.65-5.1,13.73-8.53,18.94-12.41,18.94-.67,0-1.33-.11-1.77-.33-2.44-1-3.77-4.1-3.77-8.86,0-2.88.78-9.97,1.77-16.5,1.55-9.64,2.44-12.74,4.32-13.51.78-.33,1-.33,1.88,0,.44.33,1,.89,1.11,1.22.55,1.22.22,4.32-.78,9.3-1.88,8.31-2.77,15.4-2.66,19.94.11,1.55.22,2.88.44,2.99.44.55,6.09-7.42,8.97-12.85Z"/>
        <path class="cls-1" d="M512.99,72.23c-.67-2.1-.78-6.53-.22-9.19,1.11-5.09,3.77-9.41,8.64-14.18,3.32-3.32,5.43-4.87,7.31-5.32,2.77-.66,5.09,1.66,4.54,4.65-.55,2.55-4.65,8.53-7.86,11.63-1.88,1.66-4.65,3.43-5.54,3.43-.67,0-1,1.11-1.22,3.66-.11,2.66.22,4.21,1.33,5.43,1.44,1.44,2.88,1.33,6.2-.33,3.66-1.77,9.53-6.54,16.5-13.4,4.76-4.76,5.76-5.43,5.98-4.32.11.66-3.21,4.87-7.31,9.19-3.54,3.88-9.42,9.3-11.85,10.97-3.99,2.88-7.86,4.1-10.86,3.32-2.44-.67-4.65-2.88-5.65-5.54ZM520.19,60.16c0,.66.33.44,2.55-1.33,4.32-3.43,8.64-9.97,7.75-11.52-.66-.89-3.21,1-5.87,4.43-1.44,1.99-4.43,7.64-4.43,8.42Z"/>
        <path class="cls-1" d="M543.67,74.56c0-3.43,1.77-14.4,3.1-19.72,1.11-4.32,3.77-11.3,4.54-12.18,2.1-2.33,5.76-.55,5.54,2.66-.11.66-.66,2.33-1.33,3.77-2.44,5.43-3.1,7.2-4.21,10.19-1.22,3.32-3.1,9.53-3.1,10.19,0,.22,1.11-1.33,2.22-3.66,4.1-7.53,11.3-18.83,13.4-21.04,1-.89,1.33-1.11,2.21-1.11,2.22,0,2.66,1.77,1.55,8.64-1.33,9.86-1.22,16.28.22,17.5,1.66,1.33,8.42-5.87,12.52-13.51.66-1.22,1.33-2.1,1.55-2.1.66,0,.22,1.33-1.44,4.65-2.66,5.43-4.76,8.53-6.87,10.63-2.21,2.44-3.77,3.21-5.43,3.21-1.88,0-3.21-1-4.32-3.54-1.88-3.99-1.66-7.86.44-20.05l.22-1-.78,1c-1.44,1.44-4.65,6.2-6.54,9.53-1.88,3.32-4.32,8.09-6.76,13.85-2.33,5.21-3.77,6.65-5.43,5.65-.89-.44-1.33-1.77-1.33-3.54Z"/>
      </g>
    </g>
  </g>
</svg>